<?xml version="1.0" encoding="utf-8"?>
<!-- Generator: Adobe Illustrator 25.0.1, SVG Export Plug-In . SVG Version: 6.00 Build 0)  -->
<svg version="1.1" id="Layer_1" xmlns="http://www.w3.org/2000/svg" xmlns:xlink="http://www.w3.org/1999/xlink" x="0px" y="0px"
	 viewBox="0 0 85.4 92.7" style="enable-background:new 0 0 85.4 92.7;" xml:space="preserve">
<path d="M85.3,12.6c-0.5-1.9-2.3-2.9-4.2-2.4c-1.7,0.4-2.7,2.1-2.5,3.8L57.2,29.4c-2.1-1.9-4.5-3.4-7.1-4.6L64,6.8
	c0.3,0,0.6,0,0.9-0.1c1.8-0.6,2.7-2.5,2.2-4.3c-0.6-1.8-2.5-2.8-4.3-2.2c-1.8,0.6-2.7,2.5-2.2,4.3c0,0.1,0.1,0.2,0.2,0.4L46.5,23.2
	c-2.1-0.7-4.2-1.2-6.4-1.4c0,0-2-0.1-2.8,0c-0.8,0-2.2,0.1-2.7,0.2c-0.5,0-2.2,0.1-2.7,0.3c-0.6,0.1-2,0.1-2,0.3l0,0
	c0,0-2,0.4-3.5,0.9C25.4,24,23.8,24.6,23,25l0,0c-0.7,0.3-1.6,0.7-2.4,1.3l-1.5,0.9C9.7,33.1,4.2,43.5,4.2,54.5
	c0,2.7,0.5,7.7,2.1,11.5L0,71.5l1.3,2l6.6-4.2l-0.3-0.6c-0.3-5.7-0.1-11.7-0.1-14.1c0-9.4,4.4-18.1,11.9-23.7
	c-0.1,0.4-0.2,0.8-0.2,1.4l0,0C3.4,51.8,8.2,70,8.4,70.7c0,0,0.3,0.6,0.8,1.3l-7.6,9.8l2.2,1.7l7.5-8.4L11,74.3
	c-0.3-1.9-2.5-19.4,7.6-35.6c0,1.7,0,3.5,0.3,5.3c-9.2,14.5-7.3,30.6-7.2,31.4c0,0,1.3,1.6,2.4,2.7c0.1-4.9-0.9-17,5.9-29.5
	c0.5,1.4,1.2,2.6,2,3.8c-7.1,9.1-7.2,25.1-7.2,26.3c0,0,1.4,1.4,2.7,2.3c0.2-3.9,0.6-18,6.6-26.1c1.1,0.9,2.3,1.8,3.6,2.6
	c-7.2,8-9.2,23.4-9.3,24c0,0,1.2,0.8,2.4,1.5c0.7-3.5,2.9-16.8,9.7-23.8c0.9,0.5,1.9,1.1,2.8,1.6c-5.9,8.7-11.8,22-12,22.5
	c0,0,0.8,0.6,2.1,1.1c0.4-0.7,6.9-13.6,12.7-21.9c0.4,0.2,0.8,0.4,1.3,0.7c0.9,0.5,1.9,0.9,2.7,1.5c-5.9,8-14.4,18-16.1,20
	c0.7,0.4,2.4,0.9,2.4,0.9c0.1-0.1,10.4-11.1,16.6-19.4c1.1,0.6,2.1,1.3,3.1,1.9c-5.7,7.1-18.7,17.6-19,17.7c0,0,1.2,0.4,2.5,0.7
	c2.1-1.3,13.4-9.3,19.2-16.5c1.1,0.7,2,1.6,2.8,2.3c-5.7,6.7-21.1,14.3-21.2,14.3c0,0,1.6,0.4,3.5,0.4c1.5-0.6,13.9-5.4,20-12.3
	c0.6,0.7,1.2,1.5,1.6,2.3l0,0c-4.4,3.4-16,9.4-21.2,10c0,0,2.5,0.2,5.6-0.1c3.2-0.3,12.5-3.6,17.1-7.2l0,0h0.1h0.1l0,0
	c0.4-0.3,0.8-0.7,1.3-1.2c0.2,0.5,0.4,0.9,0.7,1.3c1.4,1.6,3.8,1.9,6.1,1.7c0.4,1.3,0.7,2.6,0.6,2.9c0,0-0.4,0.2-1.6-0.1
	c-7.4-1.9-14.8-0.2-17.1,2.5c-0.7,0.9-1.1,2-0.6,2.9c0.8,1.8,4.1,2.7,8.7,2.7v-2.8c-3.7,0-5.7-0.7-6.1-1.1c0.8-1.2,6.7-3.5,14.3-1.6
	c0.7,0.2,3.1,0.7,4.3-0.6c1.3-1.3,0.8-3.3,0.2-5.5c0.3-0.1,0.6-0.2,0.8-0.3c2.4-0.9,3.7-2.2,3.7-3.8c0-1.4-1.1-2.5-3.1-3.3
	c-1.7-0.6-3.8-1.3-5.1,0c-1.2,1.2-0.9,2.9-0.3,5.1c-1.5,0-2.6-0.3-3.2-0.9c-0.3-0.4-0.3-1.1-0.1-1.9c5.2-5.7,8.4-12.8,8.1-21.6
	l-0.1-0.1c-0.4-8.4-4.1-16.4-9.7-22.3l21.1-15.2c0.5,0.1,1.2,0.2,1.8,0C84.7,16.4,85.7,14.5,85.3,12.6z M69.2,76.5
	c0.6,0.3,0.9,0.5,1.2,0.6c-0.3,0.3-1.3,0.9-2.5,1.3c-0.3-0.9-0.6-2-0.5-2.4C67.4,76,68,76.1,69.2,76.5z M45.1,39.2
	C52.6,45.9,58,51,62.3,60c-4.6-7.9-10.6-12.6-18.2-18.5l0,0C38,36.7,35,29.9,33.7,26.2C35.3,28.8,39.1,34.1,45.1,39.2z M26.2,26.9
	h0.2C27,31,28.9,40.3,36,46.6c2.3,2.1,4.8,4,7.2,5.8c6.3,4.9,12.3,9.7,16.1,17c-4.1-6.3-10.6-10.5-17-14.6
	c-3.7-2.4-7.2-4.6-10.1-7.3C25.1,41.2,25.8,29.9,26.2,26.9z M58.3,74.8c-4.1-6.6-11.8-10.6-19.2-14.6c-4.8-2.6-9.5-5.1-13-8.1
	c-5.8-5.2-4.6-16.1-3.6-21.6c0,5.4,1.1,13.8,7.2,19.3c3.2,2.7,6.9,5.3,10.5,7.6C47.6,62.1,55.1,67,58.3,74.8L58.3,74.8z M62.7,68.9
	c-4-8.6-10.8-14-17.6-19.3c-2.3-1.8-4.7-3.7-6.9-5.7c-6.5-5.8-8.1-14.6-8.4-18h0.1c1.2,3.6,4.5,12.1,12.1,18H42
	c9.8,7.6,16.3,12.6,20.8,24.8C62.8,68.9,62.8,68.9,62.7,68.9z M47.2,36.7c-4.6-4.1-8-8.2-9.9-11c2,1.7,6,5.3,11.6,9.8
	c8.2,6.7,11.5,11,15.4,21C59.9,48.3,54.5,43.3,47.2,36.7z M51,33c-3.7-3.1-6.7-5.7-9-7.5c12.2,2.3,22.4,13.7,24.1,27
	C62.4,43.9,58.8,39.4,51,33z"/>
</svg>
